HIERARCHY
ROOT Elbow
{
	OFFSET	0.00	0.00	0.00
	CHANNELS 6 Xposition Yposition Zposition Zrotation Xrotation Yrotation
	JOINT L_Wrist
	{
		OFFSET	 0.208349	 0.000000	 0.000000
		CHANNELS 3 Zrotation Xrotation Yrotation
		JOINT L_index_Proximal
		{
			OFFSET	 0.093499	 0.010637	-0.002084
			CHANNELS 3 Zrotation Xrotation Yrotation
			JOINT L_index_b
			{
				OFFSET	 0.033152	 0.000000	 0.000000
				CHANNELS 3 Zrotation Xrotation Yrotation
				JOINT L_index_c
				{
					OFFSET	 0.018651	 0.000000	 0.000000
					CHANNELS 3 Zrotation Xrotation Yrotation
					End Site
					{
						OFFSET	 0.018651	 0.000000	 0.000000
					}
				}
			}
		}
		JOINT L_middle_Proximal
		{
			OFFSET	 0.090632	-0.006115	-0.003750
			CHANNELS 3 Zrotation Xrotation Yrotation
			JOINT L_middle_b
			{
				OFFSET	 0.037194	 0.000000	 0.000000
				CHANNELS 3 Zrotation Xrotation Yrotation
				JOINT L_middle_c
				{
					OFFSET	 0.021943	 0.000000	 0.000000
					CHANNELS 3 Zrotation Xrotation Yrotation
					End Site
					{
						OFFSET	 0.021943	 0.000000	 0.000000
					}
				}
			}
		}
		JOINT L_pinky_Proximal
		{
			OFFSET	 0.074015	-0.035449	-0.000417
			CHANNELS 3 Zrotation Xrotation Yrotation
			JOINT L_pinky_b
			{
				OFFSET	 0.027285	 0.000000	 0.000000
				CHANNELS 3 Zrotation Xrotation Yrotation
				JOINT L_pinky_c
				{
					OFFSET	 0.015093	 0.000000	 0.000000
					CHANNELS 3 Zrotation Xrotation Yrotation
					End Site
					{
						OFFSET	 0.015093	 0.000000	 0.000000
					}
				}
			}
		}
		JOINT L_ring_Proximal
		{
			OFFSET	 0.082801	-0.021859	-0.003750
			CHANNELS 3 Zrotation Xrotation Yrotation
			JOINT L_ring_b
			{
				OFFSET	 0.034478	 0.000000	 0.000000
				CHANNELS 3 Zrotation Xrotation Yrotation
				JOINT L_ring_c
				{
					OFFSET	 0.021377	 0.000000	 0.000000
					CHANNELS 3 Zrotation Xrotation Yrotation
					End Site
					{
						OFFSET	 0.021377	 0.000000	 0.000000
					}
				}
			}
		}
		JOINT L_thumb_Proximal
		{
			OFFSET	 0.030306	 0.018528	 0.004584
			CHANNELS 3 Zrotation Xrotation Yrotation
			JOINT L_thumb_a
			{
				OFFSET	 0.038520	 0.000000	 0.000000
				CHANNELS 3 Zrotation Xrotation Yrotation
				JOINT L_thumb_b
				{
					OFFSET	 0.026310	 0.000000	 0.000000
					CHANNELS 3 Zrotation Xrotation Yrotation
					End Site
					{
						OFFSET	 0.026310	 0.000000	 0.000000
					}
				}
			}
		}
	}
}
MOTION
Frames:    15
Frame Time: 0.01666667
-0.367251	 0.231278	 0.673173	-96.522340	 75.965870	-26.145350	 5.858426	 2.540295	 14.572860	-0.475895	 0.111469	-67.826520	 0.745064	-0.683880	-85.095600	 8.187712	-2.847190	-38.296050	-12.162870	-6.387098	-71.549270	 4.590611	-4.689528	-91.222750	 6.290199	-2.469636	-42.838580	-37.577970	-12.101300	-68.521030	-4.836598	 4.476520	-85.566810	-2.249326	 0.915370	-44.283710	-21.885370	-8.742763	-74.275400	 5.450827	-5.561256	-91.150920	 4.872647	-1.709835	-38.653430	 70.336980	 57.672510	-22.472770	-2.731626	 0.002489	-0.104677	-2.689899	 0.284978	-12.092830
-0.367177	 0.231079	 0.673322	-96.249990	 76.041280	-26.405380	 5.829017	 2.551913	 14.641040	-0.506632	 0.135202	-67.644740	 0.684597	-0.628728	-85.127610	 8.156957	-2.837004	-38.302600	-12.166470	-6.383946	-71.552370	 4.572606	-4.664330	-91.139150	 6.267531	-2.459017	-42.811470	-37.637670	-12.055370	-68.524930	-4.852281	 4.487289	-85.518850	-2.235592	 0.911556	-44.361560	-21.898560	-8.732075	-74.257190	 5.475581	-5.587789	-91.163940	 4.898913	-1.719240	-38.657400	 70.281070	 57.675630	-22.488240	-2.746922	 0.003769	-0.157331	-2.692528	 0.289080	-12.253740
-0.367210	 0.231011	 0.673460	-96.135130	 76.079380	-26.518360	 5.819475	 2.557676	 14.674850	-0.520809	 0.146219	-67.615200	 0.685397	-0.629691	-85.148250	 8.193113	-2.854509	-38.363550	-12.176200	-6.375440	-71.561900	 4.567303	-4.653540	-91.072840	 6.282248	-2.465709	-42.825840	-37.648620	-12.053530	-68.479080	-4.813188	 4.449248	-85.494900	-2.153857	 0.879627	-44.425810	-21.907040	-8.725971	-74.230270	 5.494387	-5.605407	-91.148030	 4.915662	-1.724762	-38.649620	 70.228140	 57.691820	-22.456970	-2.751015	 0.003101	-0.129156	-2.662775	 0.285527	-12.238760
-0.367321	 0.231026	 0.673587	-96.082350	 76.083240	-26.570340	 5.816995	 2.558058	 14.677100	-0.510803	 0.138362	-67.606660	 0.718888	-0.660514	-85.153100	 8.267772	-2.881130	-38.370200	-12.183630	-6.369813	-71.546940	 4.566629	-4.651722	-91.058850	 6.306648	-2.475383	-42.827030	-37.649040	-12.050940	-68.495160	-4.773846	 4.412577	-85.491100	-2.117557	 0.864972	-44.433320	-21.909170	-8.723619	-74.240330	 5.522012	-5.632532	-91.137170	 4.941854	-1.734078	-38.652070	 70.245090	 57.684300	-22.475100	-2.709143	 0.004406	-0.186614	-2.609720	 0.282827	-12.368120
-0.367569	 0.231240	 0.673506	-96.167500	 76.052170	-26.476220	 5.796271	 2.561535	 14.697520	-0.469986	 0.106406	-67.611040	 0.801680	-0.736048	-85.111610	 8.376573	-2.923398	-38.421860	-12.209310	-6.347116	-71.577510	 4.524899	-4.605993	-91.018630	 6.324071	-2.486480	-42.893860	-37.662370	-12.032380	-68.554700	-4.744997	 4.387838	-85.516230	-2.064322	 0.844042	-44.472820	-21.950130	-8.684027	-74.317510	 5.489304	-5.602279	-91.168910	 4.926347	-1.730024	-38.680890	 70.266140	 57.665200	-22.531360	-2.704148	 0.006621	-0.280074	-2.578787	 0.281662	-12.464630
-0.367426	 0.231235	 0.673433	-96.179570	 76.058070	-26.450190	 5.801540	 2.560664	 14.692450	-0.436801	 0.080337	-67.559100	 0.840751	-0.772015	-85.119560	 8.354751	-2.917370	-38.441500	-12.213260	-6.342324	-71.615340	 4.482004	-4.563251	-91.030300	 6.264780	-2.463707	-42.902910	-37.663640	-12.026480	-68.589700	-4.735738	 4.379025	-85.512850	-2.058457	 0.842286	-44.503540	-21.945400	-8.685283	-74.376720	 5.482616	-5.594289	-91.157140	 4.908288	-1.724559	-38.699280	 70.271430	 57.656330	-22.559640	-2.701520	 0.006534	-0.277227	-2.593163	 0.282891	-12.449720
-0.367461	 0.231409	 0.673418	-96.235630	 76.085640	-26.382430	 5.818146	 2.550821	 14.634730	-0.412136	 0.060897	-67.422720	 0.819225	-0.752907	-85.169240	 8.236431	-2.877658	-38.463080	-12.249950	-6.309829	-71.658360	 4.378447	-4.460939	-91.070220	 6.149186	-2.417732	-42.895860	-37.681930	-12.018240	-68.549570	-4.733099	 4.372797	-85.463290	-2.078775	 0.852992	-44.616060	-21.953330	-8.678225	-74.378680	 5.447405	-5.559042	-91.164050	 4.849877	-1.705541	-38.731090	 70.194290	 57.678870	-22.517960	-2.705378	 0.006434	-0.273069	-2.596720	 0.282226	-12.403560
-0.367471	 0.231445	 0.673414	-96.311160	 76.083930	-26.313770	 5.826097	 2.547813	 14.616950	-0.403954	 0.054458	-67.393150	 0.822505	-0.755861	-85.165020	 8.209801	-2.867441	-38.451930	-12.257890	-6.302331	-71.680660	 4.366177	-4.448558	-91.072010	 6.113845	-2.402962	-42.881730	-37.677980	-12.020240	-68.556820	-4.719564	 4.358575	-85.440860	-2.078612	 0.853435	-44.640500	-21.948520	-8.682051	-74.387200	 5.454221	-5.564617	-91.149690	 4.844119	-1.703961	-38.740990	 70.154070	 57.687500	-22.506800	-2.712318	 0.006734	-0.284463	-2.612752	 0.283861	-12.398740
-0.367585	 0.231611	 0.673217	-96.393650	 76.077300	-26.228560	 5.823374	 2.539475	 14.568010	-0.384992	 0.039658	-67.376750	 0.843021	-0.774407	-85.141480	 8.217632	-2.870476	-38.455690	-12.240730	-6.316372	-71.689260	 4.407132	-4.489714	-91.064720	 6.142419	-2.412227	-42.849910	-37.659730	-12.030810	-68.580150	-4.703891	 4.343171	-85.428730	-2.055762	 0.843782	-44.627510	-21.933950	-8.693287	-74.418760	 5.479610	-5.588945	-91.133720	 4.852456	-1.706103	-38.724000	 70.067270	 57.724090	-22.420390	-2.712220	 0.006540	-0.276675	-2.607571	 0.283256	-12.396690
-0.367578	 0.231687	 0.673125	-96.385120	 76.091850	-26.233860	 5.826780	 2.535397	 14.543990	-0.373244	 0.030497	-67.369380	 0.849961	-0.780478	-85.119000	 8.233571	-2.878110	-38.480930	-12.222820	-6.331661	-71.683380	 4.430516	-4.512767	-91.054860	 6.170430	-2.423456	-42.852980	-37.661520	-12.024420	-68.615580	-4.749255	 4.384783	-85.425090	-2.107786	 0.864728	-44.608540	-21.925630	-8.698986	-74.451930	 5.463030	-5.571353	-91.126710	 4.841039	-1.702278	-38.728170	 70.005840	 57.747390	-22.368020	-2.711393	 0.006514	-0.275397	-2.605056	 0.282689	-12.383980
-0.367555	 0.231629	 0.672911	-96.405140	 76.088070	-26.184210	 5.814036	 2.530991	 14.518210	-0.357012	 0.017842	-67.360180	 0.891329	-0.817968	-85.084720	 8.306205	-2.906404	-38.515740	-12.198520	-6.351868	-71.687710	 4.484885	-4.567888	-91.051700	 6.259954	-2.459562	-42.867500	-37.708450	-11.979870	-68.677420	-4.847278	 4.477667	-85.455180	-2.154131	 0.883008	-44.574350	-21.957900	-8.667601	-74.514140	 5.386477	-5.499519	-91.191580	 4.819836	-1.697105	-38.776660	 69.983540	 57.757670	-22.342510	-2.730921	 0.005881	-0.246710	-2.606982	 0.282785	-12.379180
-0.367597	 0.231557	 0.672809	-96.400730	 76.089040	-26.180890	 5.811776	 2.524484	 14.480020	-0.319310	-0.011547	-67.342850	 0.903263	-0.829095	-85.096630	 8.277246	-2.897744	-38.534230	-12.166320	-6.377202	-71.731140	 4.494828	-4.578003	-91.051510	 6.267621	-2.466026	-42.921890	-37.701930	-11.976010	-68.739360	-4.838963	 4.470850	-85.466540	-2.149237	 0.880929	-44.571210	-21.941040	-8.678864	-74.586930	 5.372656	-5.485597	-91.193790	 4.790183	-1.689013	-38.826630	 69.972500	 57.760510	-22.337830	-2.758230	 0.005145	-0.214261	-2.622219	 0.283815	-12.352340
-0.367613	 0.231422	 0.672745	-96.425800	 76.065110	-26.144200	 5.799563	 2.518990	 14.447770	-0.279699	-0.042414	-67.312910	 0.921637	-0.845831	-85.088320	 8.185318	-2.869270	-38.581630	-12.147220	-6.391424	-71.779640	 4.502028	-4.588507	-91.091250	 6.268203	-2.469332	-42.970440	-37.710480	-11.965180	-68.769680	-4.835187	 4.469645	-85.495650	-2.148207	 0.880226	-44.558940	-21.952890	-8.666259	-74.631640	 5.339105	-5.459078	-91.275090	 4.767344	-1.680593	-38.819190	 69.944790	 57.783210	-22.271330	-2.816143	 0.003203	-0.130453	-2.691299	 0.289977	-12.297220
-0.367615	 0.231399	 0.672706	-96.517240	 76.030940	-26.042430	 5.811572	 2.517706	 14.440090	-0.253938	-0.062533	-67.336630	 0.934116	-0.856923	-85.064760	 8.167526	-2.865653	-38.614580	-12.135120	-6.400807	-71.800990	 4.517371	-4.606752	-91.123630	 6.299864	-2.484691	-43.015710	-37.692420	-11.972420	-68.815790	-4.825940	 4.464921	-85.544830	-2.132721	 0.873239	-44.528870	-21.961730	-8.656325	-74.675670	 5.325774	-5.449580	-91.318490	 4.773924	-1.684085	-38.844170	 69.970630	 57.777460	-22.279370	-2.824267	 0.002909	-0.117582	-2.718176	 0.293631	-12.329150
-0.367704	 0.231522	 0.672717	-96.706940	 75.931830	-25.842720	 5.844949	 2.516986	 14.435970	-0.056078	-0.216635	-67.310770	 1.062228	-0.973462	-85.006640	 8.115452	-2.848869	-38.633860	-12.081950	-6.445400	-71.803460	 4.579046	-4.671875	-91.151040	 6.331315	-2.501741	-43.088040	-37.650950	-11.961080	-69.118180	-4.810493	 4.450329	-85.540920	-2.133348	 0.870202	-44.377670	-21.931980	-8.679039	-74.747570	 5.352578	-5.477787	-91.326620	 4.816277	-1.699265	-38.848820	 70.105760	 57.726070	-22.395370	-2.830453	 0.002887	-0.116856	-2.828704	 0.306541	-12.367540
